# xmcd CD database file
#
# Track frame offsets:
#	187
#	17275
#	31662
#	45712
#	62225
#	76187
#	91337
#	109462
#	125337
#	137200
#	147362
#	161625
#	174350
#	190787
#	204200
#
# Disc length: 2930 seconds
#
# Revision: 2
# Processed by: cddbd v1.4PL0 Copyright (c) Steve Scherf et al.
# Submitted via: CDex 1.40Release
#
DISCID=c00b700f
DTITLE=Billie Holiday - Lady Sings the Blues
DYEAR=1900
DGENRE=Jazz
TTITLE0=Lady sings the blues
TTITLE1=Travelin'light
TTITLE2=I must have that man
TTITLE3=SOme other spring
TTITLE4=Strange fruit
TTITLE5=No good man
TTITLE6=God bless the child
TTITLE7=Good morning heartache
TTITLE8=Love me or leave me
TTITLE9=Too marvelous for words
TTITLE10=Willow weep for me
TTITLE11=I thought about you
TTITLE12=P.S. I love you (Additional Track for CD)
TTITLE13=Softly (Additional Track for CD)
TTITLE14=Stormy blues (Additional Track for CD)
EXTD=ID3G: 8
EXTT0=
EXTT1=
EXTT2=
EXTT3=
EXTT4=
EXTT5=
EXTT6=
EXTT7=
EXTT8=
EXTT9=
EXTT10=
EXTT11=
EXTT12=
EXTT13=
EXTT14=
PLAYORDER=
